<svg width="440" height="280" viewBox="0 0 440 280" fill="none" xmlns="http://www.w3.org/2000/svg">
  <defs>
    <linearGradient id="bgGradient" x1="0%" y1="0%" x2="100%" y2="100%">
      <stop offset="0%" style="stop-color:#18181B"/>
      <stop offset="100%" style="stop-color:#27272A"/>
    </linearGradient>
  </defs>

  <!-- Background -->
  <rect width="440" height="280" fill="url(#bgGradient)"/>

  <!-- Decorative grid lines -->
  <g opacity="0.1">
    <line x1="0" y1="70" x2="440" y2="70" stroke="#71717A" stroke-width="1"/>
    <line x1="0" y1="140" x2="440" y2="140" stroke="#71717A" stroke-width="1"/>
    <line x1="0" y1="210" x2="440" y2="210" stroke="#71717A" stroke-width="1"/>
    <line x1="110" y1="0" x2="110" y2="280" stroke="#71717A" stroke-width="1"/>
    <line x1="220" y1="0" x2="220" y2="280" stroke="#71717A" stroke-width="1"/>
    <line x1="330" y1="0" x2="330" y2="280" stroke="#71717A" stroke-width="1"/>
  </g>

  <!-- Logo/Icon -->
  <g transform="translate(180, 60)">
    <rect width="80" height="80" rx="16" fill="#27272A" stroke="#3F3F46" stroke-width="2"/>
    <!-- Grid pattern -->
    <g opacity="0.4">
      <line x1="12" y1="24" x2="68" y2="24" stroke="#71717A" stroke-width="1"/>
      <line x1="12" y1="36" x2="68" y2="36" stroke="#71717A" stroke-width="1"/>
      <line x1="12" y1="48" x2="68" y2="48" stroke="#71717A" stroke-width="1"/>
      <line x1="12" y1="60" x2="68" y2="60" stroke="#71717A" stroke-width="1"/>
    </g>
    <!-- Colored dots -->
    <circle cx="20" cy="24" r="4" fill="#3B82F6"/>
    <circle cx="20" cy="36" r="4" fill="#10B981"/>
    <circle cx="20" cy="48" r="4" fill="#F59E0B"/>
    <circle cx="20" cy="60" r="4" fill="#3B82F6"/>
    <!-- Bars -->
    <rect x="30" y="20" width="28" height="8" rx="2" fill="#52525B"/>
    <rect x="30" y="32" width="36" height="8" rx="2" fill="#71717A"/>
    <rect x="30" y="44" width="20" height="8" rx="2" fill="#52525B"/>
    <rect x="30" y="56" width="32" height="8" rx="2" fill="#71717A"/>
    <!-- AI sparkle -->
    <g transform="translate(52, 8)">
      <path d="M8 0L10 6L16 8L10 10L8 16L6 10L0 8L6 6L8 0Z" fill="#F59E0B"/>
    </g>
  </g>

  <!-- Title -->
  <text x="220" y="175" font-family="system-ui, -apple-system, sans-serif" font-size="32" font-weight="700" fill="#FAFAFA" text-anchor="middle">everyrow</text>

  <!-- Subtitle -->
  <text x="220" y="205" font-family="system-ui, -apple-system, sans-serif" font-size="14" fill="#A1A1AA" text-anchor="middle">AI-powered spreadsheet operations</text>

  <!-- Feature pills -->
  <g transform="translate(70, 230)">
    <rect x="0" y="0" width="56" height="24" rx="12" fill="#3B82F6" opacity="0.2"/>
    <text x="28" y="16" font-family="system-ui, sans-serif" font-size="11" fill="#3B82F6" text-anchor="middle">Rank</text>
  </g>
  <g transform="translate(136, 230)">
    <rect x="0" y="0" width="64" height="24" rx="12" fill="#10B981" opacity="0.2"/>
    <text x="32" y="16" font-family="system-ui, sans-serif" font-size="11" fill="#10B981" text-anchor="middle">Screen</text>
  </g>
  <g transform="translate(210, 230)">
    <rect x="0" y="0" width="64" height="24" rx="12" fill="#F59E0B" opacity="0.2"/>
    <text x="32" y="16" font-family="system-ui, sans-serif" font-size="11" fill="#F59E0B" text-anchor="middle">Dedupe</text>
  </g>
  <g transform="translate(284, 230)">
    <rect x="0" y="0" width="56" height="24" rx="12" fill="#8B5CF6" opacity="0.2"/>
    <text x="28" y="16" font-family="system-ui, sans-serif" font-size="11" fill="#8B5CF6" text-anchor="middle">Merge</text>
  </g>
</svg>
